<?xml version="1.0" standalone="no"?>
<!DOCTYPE svg PUBLIC "-//W3C//DTD SVG 20010904//EN"
 "http://www.w3.org/TR/2001/REC-SVG-20010904/DTD/svg10.dtd">
<svg version="1.0" xmlns="http://www.w3.org/2000/svg"
 width="2048.000000pt" height="2048.000000pt" viewBox="0 0 2048.000000 2048.000000"
 preserveAspectRatio="xMidYMid meet">

<g transform="translate(0.000000,2048.000000) scale(0.100000,-0.100000)"
fill="#ffffff" stroke="none">
<path d="M9020 13912 c0 -4083 1 -4369 17 -4392 19 -28 311 -346 366 -398 l34
-33 7 85 c4 46 6 1310 6 2808 -2 2585 2 3168 30 4388 5 234 10 526 10 649 0
383 12 234 21 -251 4 -255 12 -681 18 -948 17 -789 33 -4277 26 -5615 l-7
-1240 74 -80 c100 -108 306 -341 344 -390 l32 -39 6 94 c18 301 26 1326 31
3890 5 2669 16 4098 31 4195 6 35 8 37 15 18 17 -46 31 -3442 25 -5823 -4
-1301 -7 -2396 -6 -2435 1 -95 33 -160 167 -343 112 -152 233 -300 233 -285 0
4 8 163 16 353 14 291 17 792 20 3180 2 1559 5 2943 7 3075 2 132 5 521 6 865
1 558 5 670 24 650 3 -3 8 -142 11 -310 22 -1010 27 -2097 25 -4985 -1 -3188
-1 -3200 19 -3292 22 -101 102 -309 192 -498 66 -141 112 -191 164 -181 17 4
35 11 41 17 20 20 24 503 30 4039 6 3679 11 4210 45 4210 24 0 37 -353 51
-1365 13 -981 6 -6021 -10 -7090 -5 -363 -7 -750 -4 -859 l6 -199 200 6 c109
3 201 8 204 11 15 15 24 2171 20 5316 -3 3289 -5 3602 -20 3675 -18 88 -51
194 -122 390 -25 72 -62 193 -81 270 -188 753 -300 1062 -541 1490 -306 544
-641 935 -1109 1297 -115 90 -480 335 -602 406 l-72 41 0 -4367z"/>
<path d="M11568 17115 c-5 -6 7 -963 13 -969 3 -3 72 -15 154 -26 437 -62 900
-192 1284 -362 136 -60 416 -197 501 -246 457 -260 830 -533 1220 -893 281
-259 483 -491 759 -867 515 -702 850 -1516 1001 -2432 27 -163 76 -588 68
-594 -2 -2 -15 -6 -30 -10 -33 -8 -32 -12 -47 159 -34 367 -118 777 -240 1175
-225 731 -587 1386 -1092 1975 -134 156 -531 554 -684 684 -397 340 -920 680
-1372 894 -485 229 -1029 386 -1397 404 l-129 6 6 -193 c4 -107 10 -197 14
-201 5 -4 65 -17 135 -28 473 -77 805 -189 1318 -446 246 -122 417 -222 629
-365 924 -624 1642 -1510 2036 -2515 199 -507 303 -968 357 -1575 16 -187 16
-724 0 -905 -73 -799 -230 -1377 -557 -2050 -237 -488 -523 -900 -890 -1284
-268 -280 -492 -474 -685 -596 -25 -16 -168 -109 -317 -208 -216 -142 -273
-184 -273 -201 0 -32 11 -41 64 -59 44 -15 127 -17 798 -17 643 0 754 2 785
15 74 31 437 371 729 683 479 511 895 1126 1199 1770 176 375 252 567 351 887
147 476 230 879 286 1390 17 160 18 815 0 985 -61 598 -166 1088 -343 1608
-208 609 -401 1005 -736 1510 -463 698 -1014 1259 -1759 1792 -580 414 -1334
760 -2049 939 -241 60 -571 115 -875 146 -85 8 -172 17 -192 19 -20 2 -38 3
-40 1z"/>
<path d="M5507 16671 c-58 -38 -54 50 -58 -1351 -3 -1233 -2 -1297 15 -1338
27 -63 57 -82 130 -82 43 0 71 6 93 20 68 41 64 -58 63 1383 0 1241 -1 1303
-18 1327 -43 58 -165 81 -225 41z"/>
<path d="M7620 15315 c1 -1323 14 -2602 30 -2840 33 -503 118 -923 255 -1265
56 -139 223 -465 293 -573 l52 -79 -8 629 c-8 752 -6 3599 3 3663 5 33 9 40
16 28 5 -8 13 -652 19 -1429 5 -778 14 -1621 20 -1874 21 -965 35 -1044 250
-1401 98 -162 284 -424 301 -424 28 0 14 3906 -15 4144 -56 461 -153 859 -298
1221 -209 524 -474 933 -832 1285 l-86 85 0 -1170z"/>
<path d="M6038 15860 c-20 -11 -45 -35 -57 -53 -21 -34 -21 -41 -21 -713 0
-374 -5 -809 -11 -969 -15 -389 -16 -1182 -1 -2140 12 -757 21 -997 43 -1095
16 -72 186 -588 248 -753 252 -664 667 -1355 1201 -1997 84 -102 314 -362 509
-579 401 -445 482 -540 650 -761 343 -451 544 -819 697 -1273 l49 -146 255 -3
c140 -2 257 -2 258 -1 6 2 -78 290 -119 410 -111 322 -340 745 -604 1117 -148
209 -325 421 -641 771 -234 259 -586 662 -695 795 -326 400 -623 848 -850
1285 -188 362 -327 725 -478 1250 -136 477 -211 899 -247 1409 -22 304 -30
1339 -14 1846 20 664 26 618 22 -150 -6 -959 10 -1382 73 -1944 82 -724 290
-1477 588 -2122 201 -438 570 -1022 906 -1434 106 -131 398 -465 551 -630 406
-440 765 -878 961 -1170 168 -251 367 -626 469 -882 27 -70 82 -222 122 -338
l71 -210 245 0 244 0 -7 38 c-83 462 -407 1188 -778 1742 -87 129 -253 355
-321 435 -180 212 -485 553 -671 750 -463 489 -757 864 -1012 1290 -299 501
-480 873 -641 1315 -101 279 -155 458 -278 929 -236 904 -340 1467 -399 2161
-8 102 -29 291 -44 420 -40 323 -43 364 -50 875 l-6 450 -23 33 c-45 62 -123
79 -194 42z"/>
<path d="M3737 14723 c-8 -1450 -9 -8507 -1 -8960 l7 -383 207 0 207 0 7 1022
c4 563 8 2635 9 4605 0 1971 3 3580 6 3578 2 -3 13 -285 23 -628 15 -512 20
-1125 29 -3467 5 -1565 7 -2908 4 -2985 -3 -76 -3 -586 1 -1132 l7 -993 242 0
243 0 6 403 c3 221 8 2137 10 4257 3 2235 9 3868 14 3885 6 22 11 -17 16 -145
25 -655 28 -1158 31 -4645 1 -2046 3 -3728 4 -3737 1 -17 19 -18 229 -18 l229
0 6 473 c4 259 7 1539 7 2842 0 2163 11 3790 26 3905 34 249 44 -709 44 -4081
0 -1675 3 -3067 6 -3093 l7 -46 207 0 207 0 7 521 c7 552 0 5385 -10 5749 -11
453 -53 798 -146 1199 -75 326 -148 543 -323 961 -132 317 -210 459 -378 694
-270 377 -579 733 -807 930 -90 78 -366 296 -374 296 -2 0 -6 -453 -9 -1007z"/>
<path d="M11600 15318 l0 -185 93 -17 c715 -129 1599 -595 2262 -1192 421
-379 758 -799 1056 -1319 217 -379 410 -890 488 -1295 115 -590 136 -1118 66
-1702 -101 -843 -396 -1629 -888 -2368 -220 -331 -326 -464 -690 -868 -43 -48
-89 -106 -103 -129 -22 -37 -24 -46 -14 -82 25 -96 124 -156 193 -119 24 13
216 189 405 373 559 542 1016 1291 1261 2065 207 656 273 1067 273 1720 1 403
-24 716 -87 1083 -164 973 -697 1976 -1431 2698 -506 496 -984 841 -1574 1135
-421 209 -901 360 -1210 380 l-100 7 0 -185z"/>
<path d="M11675 9922 l0 -4530 40 -4 c22 -3 115 -6 206 -7 l166 -2 7 243 c10
378 6 7719 -4 7915 -6 97 -17 202 -27 240 -33 134 -239 502 -355 636 l-33 38
0 -4529z"/>
<path d="M6706 14285 c-22 -8 -42 -18 -45 -21 -16 -16 8 -898 39 -1419 30
-512 96 -897 235 -1380 69 -239 152 -483 236 -695 69 -173 278 -596 403 -815
183 -319 469 -729 711 -1020 122 -146 465 -531 614 -689 469 -496 752 -854
993 -1261 324 -546 510 -966 642 -1450 l42 -150 217 -3 c119 -1 217 0 217 4 0
26 -56 306 -79 397 -53 201 -209 634 -323 892 -297 672 -797 1385 -1482 2115
-348 371 -468 507 -687 780 -433 541 -860 1309 -1074 1930 -185 539 -292 957
-384 1500 -56 329 -101 843 -101 1156 0 83 -2 92 -24 113 -31 29 -97 36 -150
16z"/>
<path d="M12135 13645 c24 -153 27 -509 35 -3825 4 -1944 8 -3736 9 -3982 l1
-448 199 0 199 0 -4 3178 c-3 1874 -9 3268 -15 3400 -19 444 -94 849 -235
1270 -50 152 -148 381 -181 427 -14 18 -14 17 -8 -20z"/>
<path d="M5951 10012 l-1 -663 29 -37 c16 -20 58 -89 92 -152 291 -536 348
-630 537 -890 238 -328 417 -544 876 -1060 203 -228 410 -464 459 -525 358
-438 598 -836 738 -1225 l27 -75 256 -3 c239 -2 256 -1 256 15 0 31 -79 284
-127 403 -169 427 -529 956 -999 1465 -179 195 -477 526 -580 645 -449 521
-806 1052 -1108 1648 -133 263 -199 419 -326 767 -56 154 -108 296 -115 315
-12 30 -14 -69 -14 -628z"/>
<path d="M5950 8822 c0 -170 -3 -383 -6 -473 l-7 -164 68 -100 c88 -129 370
-507 443 -593 110 -131 371 -421 621 -691 139 -151 287 -314 327 -363 258
-310 492 -672 610 -945 l49 -112 265 -3 c146 -2 266 -3 268 -2 5 2 -97 291
-132 372 -47 112 -128 254 -242 423 -175 261 -309 427 -658 814 -533 591
-1007 1186 -1237 1550 -34 55 -123 204 -197 330 -163 278 -155 265 -164 265
-5 0 -8 -139 -8 -308z"/>
<path d="M14880 8639 c-56 -23 -79 -60 -130 -209 -44 -130 -125 -329 -171
-422 -155 -309 -385 -651 -589 -873 -139 -151 -157 -214 -85 -291 45 -47 96
-48 157 -1 78 59 425 513 573 749 193 308 425 814 425 926 0 88 -98 154 -180
121z"/>
<path d="M5946 7904 c-3 -26 -6 -205 -6 -398 l0 -351 72 -80 c39 -44 191 -208
338 -365 362 -385 576 -633 723 -838 54 -75 207 -326 269 -441 l28 -51 279 0
279 0 -9 34 c-14 52 -94 231 -146 326 -161 298 -410 619 -818 1055 -376 401
-604 664 -863 998 -68 86 -127 157 -131 157 -5 0 -11 -21 -15 -46z"/>
<path d="M5940 6638 l0 -351 203 -206 c268 -273 362 -406 432 -614 l30 -87
318 0 318 0 -7 23 c-3 12 -33 75 -66 139 -114 225 -269 434 -567 763 -268 297
-638 685 -653 685 -5 0 -8 -158 -8 -352z"/>
<path d="M5929 6147 c-2 -12 -4 -188 -4 -392 l0 -370 275 3 c151 2 277 6 280
8 10 11 -33 144 -71 220 -22 44 -70 120 -106 167 -69 92 -269 306 -333 357
-38 30 -38 30 -41 7z"/>
<path d="M4018 5250 l-2087 -5 -35 -34 c-61 -59 -61 -144 0 -211 67 -74 -83
-69 1934 -74 1426 -4 1902 -8 2220 -21 344 -13 905 -16 3715 -20 3207 -5 4084
0 4980 27 204 6 1135 13 2070 17 1686 6 1700 6 1735 26 100 59 98 228 -3 282
-30 16 -451 17 -6237 18 -3413 0 -7144 -2 -8292 -5z"/>
<path d="M6150 4709 c-38 -8 -75 -34 -104 -72 -15 -20 -21 -47 -24 -95 -3 -75
14 -116 65 -149 26 -17 194 -18 4098 -21 2897 -1 4085 1 4123 9 89 18 142 79
142 164 0 60 -30 117 -77 146 l-38 24 -4076 0 c-2242 0 -4091 -3 -4109 -6z"/>
<path d="M6985 4120 c-494 -4 -635 -8 -653 -18 -64 -37 -83 -145 -36 -202 15
-17 38 -36 53 -43 21 -10 947 -13 4623 -12 l4597 0 27 21 c45 33 67 70 71 121
5 58 -10 89 -56 120 l-34 23 -3981 -2 c-2190 -2 -4264 -5 -4611 -8z"/>
<path d="M8889 3520 c-4987 -5 -5007 -5 -5029 -25 -71 -65 -64 -176 14 -224
l36 -23 1673 -6 c2550 -9 6844 -8 9055 2 1893 9 1983 10 2012 28 95 57 90 187
-10 239 -33 18 -87 19 -1390 17 -745 -2 -3608 -5 -6361 -8z"/>
<path d="M7103 2889 c-107 -53 -109 -188 -4 -241 32 -16 245 -17 3197 -17
3525 -1 3220 -7 3262 68 40 71 22 153 -41 191 -32 20 -76 20 -3202 20 l-3170
0 -42 -21z"/>
</g>
</svg>
