<svg width="749.376" height="80.422" viewBox="0 0 749.376 80.422" xmlns="http://www.w3.org/2000/svg"><g id="svgGroup" stroke-linecap="round" fill-rule="evenodd" font-size="9pt" stroke="#ffffff" stroke-width="0.25mm" fill="#ffffff" style="stroke:#ffffff;stroke-width:0.25mm;fill:#ffffff"><path d="M 537.673 2.518 L 517.273 2.518 L 539.773 77.918 L 559.673 77.918 L 574.473 34.218 L 574.673 34.218 L 587.873 77.918 L 607.873 77.918 L 631.973 2.518 L 611.573 2.518 L 597.373 51.218 L 597.173 51.218 L 582.373 2.518 L 566.773 2.518 L 550.973 51.218 L 550.773 51.218 L 537.673 2.518 Z M 78.273 77.918 L 97.873 77.918 L 97.873 31.718 L 98.073 31.718 L 133.973 77.918 L 153.573 77.918 L 153.573 2.518 L 133.973 2.518 L 133.973 48.618 L 133.773 48.618 L 97.873 2.518 L 78.273 2.518 L 78.273 77.918 Z M 46.273 2.518 L 46.273 42.218 A 128.605 128.605 0 0 1 46.255 44.509 C 46.116 52.309 44.997 60.108 37.372 62.183 A 16.728 16.728 0 0 1 32.973 62.718 C 21.35 62.718 19.853 53.614 19.691 44.509 A 128.605 128.605 0 0 1 19.673 42.218 L 19.673 2.518 L 0.073 2.518 L 0.073 44.918 A 50.942 50.942 0 0 0 2.327 62.858 A 23.332 23.332 0 0 0 7.973 71.518 C 14.273 77.718 24.173 79.918 32.973 79.918 C 41.035 79.918 50.022 78.071 56.316 72.993 A 22.505 22.505 0 0 0 57.973 71.518 A 23.746 23.746 0 0 0 64.301 60.8 A 57.505 57.505 0 0 0 65.873 44.918 L 65.873 2.518 L 46.273 2.518 Z M 294.973 19.118 L 294.973 2.518 L 252.073 2.518 L 252.073 77.918 L 294.973 77.918 L 294.973 61.318 L 271.673 61.318 L 271.673 48.318 L 293.773 48.318 L 293.773 31.718 L 271.673 31.718 L 271.673 19.118 L 294.973 19.118 Z M 679.773 19.118 L 679.773 2.518 L 636.873 2.518 L 636.873 77.918 L 679.773 77.918 L 679.773 61.318 L 656.473 61.318 L 656.473 48.318 L 678.573 48.318 L 678.573 31.718 L 656.473 31.718 L 656.473 19.118 L 679.773 19.118 Z M 514.273 19.118 L 514.273 2.518 L 470.973 2.518 L 470.973 77.918 L 490.573 77.918 L 490.573 48.318 L 512.073 48.318 L 512.073 31.718 L 490.573 31.718 L 490.573 19.118 L 514.273 19.118 Z M 420.173 0.018 A 40.769 40.769 0 0 0 378.796 33.857 A 37.904 37.904 0 0 0 378.473 38.818 A 43.237 43.237 0 0 0 384.621 61.659 C 390.813 71.73 401.271 78.441 414.112 80.046 A 48.856 48.856 0 0 0 420.173 80.418 C 442.159 80.418 458.616 66.22 461.442 45.324 A 48.528 48.528 0 0 0 461.873 38.818 A 39.27 39.27 0 0 0 429.786 1.072 A 44.442 44.442 0 0 0 420.173 0.018 Z M 228.773 19.118 L 244.973 19.118 L 244.973 2.518 L 192.973 2.518 L 192.973 19.118 L 209.173 19.118 L 209.173 77.918 L 228.773 77.918 L 228.773 19.118 Z M 733.973 37.718 L 733.973 37.518 C 740.073 34.418 742.273 28.918 742.273 22.118 A 25.255 25.255 0 0 0 741.238 14.575 C 738.512 5.852 730.603 2.518 719.873 2.518 L 691.873 2.518 L 691.873 77.918 L 722.073 77.918 A 38.086 38.086 0 0 0 738.648 74.609 C 744.982 71.492 749.373 65.929 749.373 56.918 C 749.373 46.418 744.773 39.118 733.973 37.718 Z M 307.073 77.918 L 334.873 77.918 C 355.773 77.918 373.173 61.418 373.173 40.218 A 37.845 37.845 0 0 0 335.364 2.521 A 40.038 40.038 0 0 0 334.873 2.518 L 307.073 2.518 L 307.073 77.918 Z M 185.973 2.518 L 166.373 2.518 L 166.373 77.918 L 185.973 77.918 L 185.973 2.518 Z M 436.424 26.319 A 21.896 21.896 0 0 0 420.173 19.018 A 21.637 21.637 0 0 0 410.504 21.304 A 20.31 20.31 0 0 0 398.873 38.918 A 25.19 25.19 0 0 0 399.308 43.617 A 21.273 21.273 0 0 0 420.173 61.418 A 20.874 20.874 0 0 0 437.89 51.638 A 23.541 23.541 0 0 0 441.473 38.918 A 19.039 19.039 0 0 0 436.424 26.319 Z M 326.673 19.118 L 331.273 19.118 A 24.68 24.68 0 0 1 342.071 21.401 C 347.155 23.863 350.764 28.264 352.148 34.361 A 26.432 26.432 0 0 1 352.773 40.218 C 352.773 53.204 344.968 59.713 335.081 61.054 A 29.85 29.85 0 0 1 331.073 61.318 L 326.673 61.318 L 326.673 19.118 Z M 711.473 46.718 L 713.473 46.718 C 719.873 46.718 729.573 45.818 729.573 54.918 A 7.87 7.87 0 0 1 729.023 57.949 C 726.964 62.935 719.566 62.927 714.572 62.918 A 361.967 361.967 0 0 0 713.973 62.918 L 711.473 62.918 L 711.473 46.718 Z M 711.473 17.518 L 712.873 17.518 C 717.486 17.518 722.706 17.821 723.981 22.451 A 8.902 8.902 0 0 1 724.273 24.818 C 724.273 31.218 718.873 32.118 713.673 32.118 L 711.473 32.118 L 711.473 17.518 Z" vector-effect="non-scaling-stroke"/></g></svg>