<?xml version="1.0" encoding="utf-8"?>
<!-- Generator: Adobe Illustrator 25.4.1, SVG Export Plug-In . SVG Version: 6.00 Build 0)  -->
<svg version="1.1" id="Слой_1" fill="#ffffff" xmlns="http://www.w3.org/2000/svg" xmlns:xlink="http://www.w3.org/1999/xlink" x="0px" y="0px"
	 viewBox="0 0 2000 1000" style="enable-background:new 0 0 2000 1000;" xml:space="preserve">
<g>
	<path d="M470.3,185.4v165.3c0,52.5-11.9,91.5-35.8,117.1c-23.8,25.6-60.1,38.3-108.8,38.3c-48.4,0-84.5-12.8-108.3-38.3
		c-23.8-25.6-35.8-64.6-35.8-117.1V185.4h84.5v44.2v121.1c0,53.2,19.9,79.8,59.6,79.8c40.1,0,60.1-26.6,60.1-79.8V224l-25.5-38.5
		H470.3z"/>
	<path d="M814.8,501.5h-76.7L603.9,323.3l0.5,24.9v153.4H520V185.4h76.7l134.2,180.3l-0.5-23.3V218.3l-25.1-32.9h109.5V501.5z"/>
	<path d="M959.4,501.5h-84.5V216.6l-24.4-31.2h108.9V501.5z"/>
	<path d="M1255.7,262.1h-82.8v239.4h-84.5V262.1H991v-76.7h279.8L1255.7,262.1z"/>
	<path d="M1588.2,185.4h106c56.6,0,101,14.3,132.9,43c31.9,28.7,47.9,67.2,47.9,115.5c0,47.7-16.2,85.8-48.4,114.5
		c-32.3,28.7-76.4,43-132.4,43h-171.8L1588.2,185.4z M1624.5,427.4h69.6c63.6,0,95.3-27.8,95.3-83.4c0-29-7.7-50.3-23.1-64
		c-15.4-13.6-39.5-20.5-72.3-20.5h-33.7L1624.5,427.4z"/>
</g>
<g>
	<polygon points="1304.4,185.4 1556.3,185.4 1540.5,262.1 1335.9,262.1 1285.2,280.5 	"/>
	<polygon points="1280.5,305.1 1471,305.1 1455.2,381.8 1310.9,381.8 1261.3,400.3 	"/>
	<polygon points="1258.7,424.8 1504.5,424.8 1488.7,501.5 1243.2,501.5 	"/>
</g>
<g>
	<path d="M713.8,575.9c36.6,0,65.2,10.4,85.8,31.2c20.6,20.8,30.9,50.3,30.9,88.4c0,37.9-10.3,67.1-30.9,87.7
		c-20.6,20.6-49.2,30.9-85.8,30.9c-36.9,0-65.6-10.3-86.2-30.9c-20.6-20.6-30.9-49.8-30.9-87.7c0-38.1,10.3-67.6,30.9-88.4
		C648.2,586.4,676.9,575.9,713.8,575.9z M713.8,758.9c17.2,0,30.5-5.4,40-16.1c9.5-10.7,14.2-26.4,14.2-47.1
		c0-21.2-4.7-37.2-14.2-48.1c-9.5-10.9-22.8-16.3-40-16.3c-17.4,0-30.9,5.4-40.3,16.3c-9.5,10.9-14.2,26.9-14.2,48.1
		c0,20.7,4.7,36.4,14.2,47.1C682.9,753.5,696.4,758.9,713.8,758.9z"/>
	<path d="M919.4,682.7h90.9v53h-90.9v75h-61.7v-231h167.4v56H919.4V682.7z"/>
	<path d="M1395.1,810.7H1322l-28.8-105.7c-2.5-13.1-4.7-25-6.4-35.6c-1.8,10.6-3.9,22.5-6.4,35.6l-28.8,105.7h-73.1l-60.6-231h64.8
		l31.8,137.5c1.8,8.8,3.3,18.8,4.5,29.9c0.2-1.8,1.9-11.7,4.9-29.9l29.5-137.5h66.7l29.5,137.5c1.3,7.3,2.8,16.9,4.5,28.8
		c1.3-10.9,2.8-20.4,4.5-28.8l32.2-137.5h64.8L1395.1,810.7z"/>
	<path d="M1654.5,810.7H1481v-231h170.4v56h-108.7v34.8h92.8v53h-92.8v32.2h111.7V810.7z"/>
	<path d="M1685.5,579.7h91.6c28.5,0,50.6,5.6,66.1,16.9c15.5,11.2,23.3,27.2,23.3,47.9c0,21.7-11.6,36.5-34.8,44.3
		c33.3,8.3,50,27,50,56c0,21-9,37.2-26.9,48.7c-17.9,11.5-43.4,17.2-76.5,17.2h-92.8V579.7z M1747.3,630.9v37.5h37.1
		c15.9,0,23.9-6.1,23.9-18.2c0-12.9-10.4-19.3-31.1-19.3H1747.3z M1747.3,716.1v43.5h32.9c11.9,0,21.1-2,27.6-5.9
		c6.6-3.9,9.8-9.5,9.8-16.9c0-13.9-11.1-20.8-33.3-20.8H1747.3z"/>
</g>
</svg>
